<svg width="95" height="33" viewBox="0 0 95 33" fill="none" xmlns="http://www.w3.org/2000/svg">
<path d="M1.1875 29H3.60156V25.0234H5.53906C6.86198 25.0234 7.875 24.7005 8.57812 24.0547C9.28646 23.4036 9.64062 22.4896 9.64062 21.3125C9.64062 20.1302 9.28646 19.2214 8.57812 18.5859C7.86979 17.9453 6.85938 17.625 5.54688 17.625H1.1875V29ZM3.60156 23.2344V19.4297H5.30469C6.02865 19.4297 6.53125 19.5964 6.8125 19.9297C7.09375 20.263 7.23438 20.7266 7.23438 21.3203C7.23438 21.9141 7.09375 22.3828 6.8125 22.7266C6.53125 23.0651 6.02865 23.2344 5.30469 23.2344H3.60156ZM11.0312 29H13.375V17.0625H11.0312V29ZM14.9766 26.5938C14.9766 27.4479 15.2474 28.0885 15.7891 28.5156C16.3307 28.9375 17.0052 29.1484 17.8125 29.1484C18.4844 29.1484 19.0443 29.0286 19.4922 28.7891C19.9453 28.5443 20.25 28.2682 20.4062 27.9609C20.4271 28.1432 20.4609 28.3333 20.5078 28.5312C20.5547 28.724 20.6094 28.8802 20.6719 29H22.9688V28.875C22.8698 28.6667 22.7891 28.4115 22.7266 28.1094C22.6641 27.8073 22.6328 27.4922 22.6328 27.1641V23.3984C22.6328 22.4349 22.3229 21.724 21.7031 21.2656C21.0833 20.8073 20.2214 20.5781 19.1172 20.5781C18.0234 20.5781 17.1328 20.8177 16.4453 21.2969C15.7578 21.776 15.4141 22.3854 15.4141 23.125V23.2422H17.7109V23.125C17.7109 22.849 17.8099 22.6172 18.0078 22.4297C18.2057 22.2422 18.5443 22.1484 19.0234 22.1484C19.4974 22.1484 19.8281 22.263 20.0156 22.4922C20.2031 22.7161 20.2969 23.013 20.2969 23.3828V23.8438H18.6953C17.6224 23.849 16.7344 24.0807 16.0312 24.5391C15.3281 24.9922 14.9766 25.6771 14.9766 26.5938ZM17.3203 26.3828C17.3203 26.0182 17.4609 25.737 17.7422 25.5391C18.0234 25.3411 18.4557 25.2422 19.0391 25.2422H20.2969V26.0234C20.2969 26.4453 20.138 26.8099 19.8203 27.1172C19.5026 27.4245 19.1016 27.5781 18.6172 27.5781C18.1693 27.5781 17.8411 27.4688 17.6328 27.25C17.4245 27.0312 17.3203 26.7422 17.3203 26.3828ZM24.6719 29H27.0078V23.5156C27.1536 23.1719 27.3698 22.9062 27.6562 22.7188C27.9427 22.5312 28.25 22.4375 28.5781 22.4375C28.9844 22.4375 29.2969 22.5417 29.5156 22.75C29.7344 22.9531 29.8438 23.3073 29.8438 23.8125V29H32.1797V23.8594C32.1797 22.6667 31.9141 21.8333 31.3828 21.3594C30.8516 20.8802 30.1641 20.6406 29.3203 20.6406C28.8099 20.6406 28.3438 20.7448 27.9219 20.9531C27.5052 21.1562 27.1927 21.4167 26.9844 21.7344H26.9453L26.8906 20.8047H24.6719V29ZM34.1094 29H36.4453V23.5156C36.5911 23.1719 36.8073 22.9062 37.0938 22.7188C37.3802 22.5312 37.6875 22.4375 38.0156 22.4375C38.4219 22.4375 38.7344 22.5417 38.9531 22.75C39.1719 22.9531 39.2812 23.3073 39.2812 23.8125V29H41.6172V23.8594C41.6172 22.6667 41.3516 21.8333 40.8203 21.3594C40.2891 20.8802 39.6016 20.6406 38.7578 20.6406C38.2474 20.6406 37.7812 20.7448 37.3594 20.9531C36.9427 21.1562 36.6302 21.4167 36.4219 21.7344H36.3828L36.3281 20.8047H34.1094V29ZM43.1016 25.0234C43.1016 26.2943 43.4818 27.3151 44.2422 28.0859C45.0026 28.8516 46.0469 29.2344 47.375 29.2344C48.224 29.2344 48.9583 29.0703 49.5781 28.7422C50.1979 28.4141 50.638 27.9974 50.8984 27.4922L49.2422 26.4453C49.0443 26.7266 48.7865 26.974 48.4688 27.1875C48.151 27.401 47.7734 27.5078 47.3359 27.5078C46.7109 27.5078 46.237 27.2969 45.9141 26.875C45.5911 26.4479 45.4297 25.8698 45.4297 25.1406V24.6406C45.4297 23.9062 45.5781 23.3255 45.875 22.8984C46.1771 22.4661 46.6146 22.25 47.1875 22.25C47.6823 22.25 48.0625 22.4062 48.3281 22.7188C48.599 23.026 48.7344 23.4036 48.7344 23.8516V24.0234H44.6797V25.4688H51.0391V24.6406C51.0391 23.3698 50.6979 22.375 50.0156 21.6562C49.3333 20.9323 48.3906 20.5703 47.1875 20.5703C45.9948 20.5703 45.0156 20.9557 44.25 21.7266C43.4844 22.4922 43.1016 23.5078 43.1016 24.7734V25.0234ZM52.5 29H54.8438V23.75C54.974 23.4219 55.1797 23.1536 55.4609 22.9453C55.7474 22.7318 56.0703 22.625 56.4297 22.625C56.5547 22.625 56.6693 22.6328 56.7734 22.6484C56.8776 22.6589 56.974 22.6745 57.0625 22.6953V20.6953C57.0156 20.6745 56.9349 20.651 56.8203 20.625C56.7109 20.599 56.6016 20.5859 56.4922 20.5859C56.1276 20.5859 55.7995 20.6979 55.5078 20.9219C55.2161 21.1406 54.987 21.4036 54.8203 21.7109H54.7812L54.7344 20.8047H52.5V29Z" fill="#1C49BC"/>
<rect x="67.5" y="1.5" width="26" height="26" rx="5.5" stroke="#1C49BC" stroke-width="3"/>
<rect x="72" y="17" width="6" height="6" rx="2" fill="#1C49BC"/>
<rect x="80" y="17" width="6" height="6" rx="2" fill="#E8E8E8"/>
<rect x="72" y="9" width="6" height="6" rx="2" fill="#1C49BC"/>
<rect x="80" y="9" width="6" height="6" rx="2" fill="#1C49BC"/>
<mask id="mask0_25_278" style="mask-type:alpha" maskUnits="userSpaceOnUse" x="66" y="0" width="24" height="29">
<rect x="-1.5" y="1.5" width="21" height="26" rx="5.5" transform="matrix(-1 0 0 1 87 0)" stroke="#1C49BC" stroke-width="3"/>
</mask>
<g mask="url(#mask0_25_278)">
<rect width="14.8966" height="36" transform="matrix(-1 0 0 1 77.5864 -3)" fill="#D9D9D9"/>
</g>
</svg>
